<?xml version="1.0" standalone="no"?>
<!DOCTYPE svg PUBLIC "-//W3C//DTD SVG 20010904//EN"
 "http://www.w3.org/TR/2001/REC-SVG-20010904/DTD/svg10.dtd">
<svg version="1.0" xmlns="http://www.w3.org/2000/svg"
 width="254.000000pt" height="199.000000pt" viewBox="0 0 254.000000 199.000000"
 preserveAspectRatio="xMidYMid meet">

<g transform="translate(0.000000,199.000000) scale(0.100000,-0.100000)"
fill="#000000" stroke="none">
<path d="M1859 1894 c-122 -221 -310 -403 -627 -604 l-83 -53 -55 54 c-65 64
-88 109 -80 154 9 49 26 59 75 44 32 -9 53 -9 101 1 50 11 74 11 130 0 62 -12
72 -11 95 4 69 45 45 77 -160 205 -166 105 -170 108 -175 146 -4 34 -7 36 -19
22 -19 -24 -31 -12 -31 30 l0 37 -29 -28 c-16 -16 -35 -41 -41 -57 -11 -25
-18 -29 -54 -29 -22 0 -59 -6 -81 -12 l-40 -12 35 -4 35 -4 -25 -13 c-15 -9
-19 -14 -10 -15 13 0 13 -1 0 -10 -8 -6 -27 -7 -42 -4 -31 6 -37 -6 -12 -27
14 -12 14 -14 -3 -20 -10 -3 -18 -12 -18 -20 0 -18 -67 -24 -95 -9 -20 11 -21
10 -10 -10 6 -12 24 -27 39 -33 37 -16 29 -32 -26 -57 -48 -21 -55 -38 -9 -21
37 15 32 -2 -11 -39 -31 -26 -34 -31 -16 -27 16 3 23 1 23 -9 0 -8 6 -14 13
-14 6 -1 2 -9 -11 -20 -20 -16 -21 -20 -7 -28 14 -7 13 -11 -9 -26 -29 -18
-36 -42 -10 -32 14 5 15 1 10 -29 -6 -31 -5 -36 10 -33 14 2 20 -10 30 -67 10
-58 47 -174 78 -247 6 -14 -2 -20 -48 -33 -31 -9 -56 -18 -56 -21 0 -2 289 -3
643 -3 593 1 638 2 590 17 -58 16 -69 32 -25 32 103 0 334 101 433 189 57 51
116 127 106 137 -3 3 -38 -13 -77 -36 -163 -95 -334 -157 -530 -190 -67 -12
-124 -19 -126 -17 -3 2 33 14 80 26 202 50 327 113 458 231 79 71 190 240 157
240 -6 0 -39 -24 -72 -54 -199 -173 -415 -284 -720 -367 -181 -49 -168 -39 59
45 247 91 348 151 470 278 85 89 157 209 169 283 l6 40 -37 -40 c-253 -274
-396 -376 -709 -508 -198 -83 -198 -77 0 25 99 51 209 113 245 138 167 114
281 266 324 434 25 94 10 90 -61 -16 -65 -97 -216 -253 -327 -337 -90 -69
-270 -177 -409 -248 -112 -56 -60 -13 111 93 180 111 284 187 337 245 59 65
125 174 149 247 26 77 40 162 27 162 -6 0 -29 -34 -52 -76z"/>
<path d="M936 750 c-67 -43 -100 -116 -100 -220 0 -91 25 -155 75 -192 73 -54
150 -62 224 -23 26 14 49 24 50 23 1 -2 7 -12 13 -23 9 -16 11 -1 12 72 0 77
3 94 18 102 12 8 -6 10 -68 9 -47 0 -74 -3 -60 -5 37 -7 50 -30 50 -95 0 -52
-3 -59 -27 -75 -38 -25 -114 -24 -150 3 -15 11 -39 41 -52 68 -20 40 -24 62
-24 141 0 82 4 101 27 149 26 53 53 79 91 89 16 4 15 5 -6 6 -14 0 -47 -13
-73 -29z"/>
<path d="M1095 765 c49 -17 81 -53 95 -105 6 -22 13 -40 15 -40 3 0 5 35 5 77
0 69 -2 75 -14 58 -14 -19 -15 -19 -54 3 -22 12 -50 22 -63 22 -18 -1 -14 -4
16 -15z"/>
<path d="M1774 746 c-29 -29 -34 -41 -34 -79 0 -57 27 -92 122 -154 81 -54 98
-75 98 -126 0 -48 -35 -86 -82 -88 -22 -1 -26 -3 -11 -6 34 -7 97 15 122 41
31 33 39 102 17 145 -11 20 -48 52 -101 87 -95 62 -115 85 -115 129 0 73 95
102 151 46 16 -16 32 -43 35 -60 11 -54 24 -33 24 37 -1 61 -2 65 -15 48 -14
-19 -16 -19 -50 -3 -20 9 -56 17 -81 17 -39 0 -51 -5 -80 -34z"/>
<path d="M2225 766 c-128 -57 -176 -261 -92 -392 46 -71 173 -106 253 -68 69
33 108 89 125 179 21 116 -25 229 -111 273 -51 25 -128 29 -175 8z m155 -32
c54 -49 74 -118 68 -229 -8 -127 -60 -205 -136 -205 -50 0 -97 33 -124 88 -20
40 -23 62 -23 152 0 89 3 111 22 147 50 92 123 110 193 47z"/>
<path d="M35 764 c42 -11 45 -29 45 -229 0 -195 -4 -215 -40 -228 -8 -3 25 -5
75 -5 50 0 81 3 70 5 -39 10 -45 23 -45 103 l0 77 64 5 c41 4 77 13 99 27 79
49 82 180 4 227 -27 16 -53 19 -162 21 -72 1 -121 -1 -110 -3z m231 -27 c22
-19 28 -34 32 -79 9 -107 -29 -158 -118 -158 l-40 0 0 123 c0 68 3 127 7 130
3 4 26 7 49 7 30 0 51 -7 70 -23z"/>
<path d="M440 757 l25 -13 0 -209 0 -209 -25 -13 c-21 -11 2 -13 148 -13 l172
0 0 65 c0 36 -2 65 -5 65 -3 0 -10 -20 -16 -45 -16 -62 -38 -75 -125 -75 -56
0 -73 3 -78 16 -3 9 -6 58 -6 110 l0 94 33 0 c44 0 67 -18 77 -60 6 -26 8 -9
8 65 l1 100 -17 -45 c-17 -43 -20 -45 -60 -48 l-42 -3 0 100 c0 115 4 121 87
121 70 0 96 -17 110 -70 l11 -45 1 40 c1 22 4 50 7 63 l6 22 -168 0 c-143 0
-165 -2 -144 -13z"/>
<path d="M1470 747 c-5 -15 -14 -38 -20 -52 -7 -18 -6 -24 2 -22 10 2 78 -152
78 -176 0 -5 -36 -7 -80 -5 l-79 3 -26 -72 c-15 -40 -38 -83 -52 -97 l-26 -26
64 1 c55 0 60 2 37 11 -23 8 -28 16 -28 43 0 18 9 54 20 80 l20 46 81 -3 81
-3 24 -65 c29 -75 28 -92 -6 -101 -15 -4 8 -7 58 -8 l83 -1 -24 22 c-17 15
-51 92 -102 228 -43 113 -81 209 -86 214 -5 5 -13 -2 -19 -17z"/>
<path d="M1411 599 c-6 -18 -9 -34 -7 -36 2 -2 9 10 15 28 6 18 9 34 7 36 -2
2 -9 -10 -15 -28z"/>
<path d="M1386 535 c-9 -26 -7 -32 5 -12 6 10 9 21 6 23 -2 3 -7 -2 -11 -11z"/>
<path d="M1741 381 c-1 -74 1 -82 13 -66 12 17 14 17 37 2 13 -10 30 -17 39
-16 9 0 6 4 -7 9 -29 12 -52 48 -68 107 l-13 48 -1 -84z"/>
<path d="M20 136 c0 -85 12 -106 59 -106 50 0 61 17 61 99 0 83 -18 78 -22 -5
-2 -51 -7 -70 -21 -78 -34 -21 -52 4 -55 78 -3 79 -22 89 -22 12z"/>
<path d="M340 179 c0 -5 5 -7 10 -4 6 3 10 8 10 11 0 2 -4 4 -10 4 -5 0 -10
-5 -10 -11z"/>
<path d="M910 179 c0 -5 5 -7 10 -4 6 3 10 8 10 11 0 2 -4 4 -10 4 -5 0 -10
-5 -10 -11z"/>
<path d="M1105 180 c3 -5 8 -10 11 -10 2 0 4 5 4 10 0 6 -5 10 -11 10 -5 0 -7
-4 -4 -10z"/>
<path d="M1295 180 c3 -5 15 -10 25 -10 17 0 20 -9 23 -77 l3 -78 2 78 c2 75
3 77 27 77 14 0 25 5 25 10 0 6 -25 10 -56 10 -34 0 -53 -4 -49 -10z"/>
<path d="M1560 110 c0 -47 4 -80 10 -80 6 0 10 33 10 80 0 47 -4 80 -10 80 -6
0 -10 -33 -10 -80z"/>
<path d="M2230 179 c0 -5 5 -7 10 -4 6 3 10 8 10 11 0 2 -4 4 -10 4 -5 0 -10
-5 -10 -11z"/>
<path d="M991 168 c0 -9 -7 -19 -13 -22 -10 -5 -10 -7 0 -12 7 -3 12 -25 12
-54 0 -35 4 -50 16 -54 24 -9 32 3 11 15 -22 13 -25 89 -2 89 8 0 15 5 15 10
0 6 -6 10 -14 10 -8 0 -17 8 -19 18 -4 15 -5 15 -6 0z"/>
<path d="M2129 163 c-7 -92 16 -162 43 -135 9 9 8 12 -5 12 -13 0 -17 9 -17
45 0 33 4 45 15 45 8 0 15 5 15 10 0 6 -7 10 -15 10 -8 0 -15 7 -15 15 0 21
-20 19 -21 -2z"/>
<path d="M190 88 c0 -32 4 -58 10 -58 6 0 10 20 10 45 0 32 5 47 18 53 30 16
42 3 42 -49 0 -27 5 -49 10 -49 15 0 12 96 -2 108 -7 6 -30 10 -50 9 l-38 -1
0 -58z"/>
<path d="M340 90 c0 -33 4 -60 10 -60 6 0 10 27 10 60 0 33 -4 60 -10 60 -6 0
-10 -27 -10 -60z"/>
<path d="M414 125 c12 -47 34 -95 45 -95 5 0 18 27 29 60 12 33 16 60 11 60
-5 0 -14 -20 -21 -45 -7 -25 -15 -45 -18 -45 -4 0 -13 18 -20 41 -16 47 -37
66 -26 24z"/>
<path d="M556 128 c-22 -31 -20 -64 4 -88 21 -21 29 -23 54 -14 26 10 18 19
-16 19 -23 0 -34 5 -36 18 -3 14 4 17 37 17 33 0 41 4 41 18 0 23 -30 52 -53
52 -9 0 -23 -10 -31 -22z m62 -20 c3 -14 -3 -18 -27 -18 -29 0 -41 17 -24 34
13 13 48 1 51 -16z"/>
<path d="M684 141 c-9 -9 -3 -111 6 -111 6 0 10 18 10 40 0 29 5 43 20 52 11
7 20 16 20 19 0 7 -49 7 -56 0z"/>
<path d="M791 132 c-11 -21 -4 -35 27 -51 12 -6 22 -19 22 -28 0 -12 -7 -14
-30 -9 -34 6 -42 -9 -8 -17 28 -8 58 9 58 31 0 10 -13 26 -30 35 -39 23 -38
37 3 37 24 0 28 3 17 10 -23 15 -48 12 -59 -8z"/>
<path d="M910 79 c0 -44 4 -68 10 -64 6 3 10 35 10 71 0 36 -4 64 -10 64 -6 0
-10 -30 -10 -71z"/>
<path d="M1085 141 c-3 -5 9 -11 27 -13 42 -4 50 -28 9 -28 -33 0 -55 -27 -45
-54 8 -20 23 -24 63 -18 l33 5 -4 49 c-3 28 -12 54 -19 59 -19 12 -56 11 -64
0z m60 -76 c0 -13 -8 -21 -23 -23 -26 -4 -42 25 -21 39 22 14 44 6 44 -16z"/>
<path d="M1436 134 c-9 -8 -16 -31 -16 -49 0 -40 36 -71 70 -60 31 10 24 23
-12 21 -23 -1 -33 4 -36 17 -3 14 4 17 38 17 38 0 41 2 34 23 -14 48 -48 62
-78 31z m62 -26 c3 -14 -3 -18 -27 -18 -29 0 -41 17 -24 34 13 13 48 1 51 -16z"/>
<path d="M1646 128 c-22 -31 -20 -64 4 -88 21 -21 29 -23 54 -14 26 10 18 19
-16 19 -23 0 -34 5 -36 18 -3 14 4 17 37 17 33 0 41 4 41 18 0 23 -30 52 -53
52 -9 0 -23 -10 -31 -22z m62 -20 c3 -14 -3 -18 -27 -18 -29 0 -41 17 -24 34
13 13 48 1 51 -16z"/>
<path d="M1781 85 l2 -60 6 48 c12 83 61 83 61 1 0 -59 18 -56 22 4 3 39 6 47
23 47 17 0 20 -8 23 -47 2 -27 8 -48 13 -48 6 0 9 22 7 51 -3 60 -24 82 -58
62 -12 -8 -21 -9 -25 -3 -3 6 -22 9 -41 7 l-34 -2 1 -60z"/>
<path d="M1995 141 c-3 -5 9 -11 27 -13 42 -4 50 -28 9 -28 -33 0 -55 -27 -45
-54 7 -19 24 -25 57 -19 25 5 27 9 27 58 0 39 -4 54 -16 59 -23 9 -52 7 -59
-3z m60 -76 c0 -22 -31 -33 -47 -17 -17 17 -1 44 24 40 15 -2 23 -10 23 -23z"/>
<path d="M2230 90 c0 -33 4 -60 10 -60 6 0 10 27 10 60 0 33 -4 60 -10 60 -6
0 -10 -27 -10 -60z"/>
<path d="M2317 135 c-9 -8 -18 -24 -22 -35 -12 -37 35 -87 69 -74 23 9 20 23
-4 17 -26 -7 -50 13 -50 42 0 29 24 49 51 42 13 -3 19 -1 16 6 -6 18 -43 20
-60 2z"/>
<path d="M2435 141 c-3 -5 9 -11 27 -13 43 -4 48 -26 6 -30 -29 -3 -33 -7 -36
-34 -3 -35 17 -50 46 -35 9 4 23 6 30 4 19 -7 16 82 -4 101 -17 18 -59 21 -69
7z m63 -73 c-3 -25 -34 -36 -51 -19 -14 14 9 41 35 41 14 0 19 -6 16 -22z"/>
</g>
</svg>
