<?xml version="1.0" standalone="no"?>
<!DOCTYPE svg PUBLIC "-//W3C//DTD SVG 20010904//EN"
 "http://www.w3.org/TR/2001/REC-SVG-20010904/DTD/svg10.dtd">
<svg version="1.0" xmlns="http://www.w3.org/2000/svg"
 width="254.000000pt" height="254.000000pt" viewBox="0 0 254.000000 254.000000"
 preserveAspectRatio="xMidYMid meet">
<metadata>
Created by potrace 1.14, written by Peter Selinger 2001-2017
</metadata>
<g transform="translate(0.000000,254.000000) scale(0.100000,-0.100000)"
fill="#000000" stroke="none">
<path d="M1882 2218 c-10 -18 -32 -55 -47 -83 -76 -134 -230 -303 -375 -411
-90 -67 -297 -204 -308 -204 -14 1 -81 66 -106 104 -16 24 -26 53 -26 75 0 51
12 65 46 56 35 -9 81 -9 158 0 37 5 77 3 111 -5 39 -9 57 -10 73 -1 32 17 55
56 47 81 -6 20 -161 127 -297 206 -66 38 -67 40 -68 82 0 46 -5 50 -31 26 -17
-15 -18 -14 -24 20 -4 20 -11 36 -15 36 -12 0 -57 -56 -65 -79 -4 -15 -18 -20
-63 -23 -31 -3 -70 -11 -87 -17 -29 -12 -29 -13 -11 -27 11 -8 16 -14 10 -14
-5 0 -2 -5 6 -11 11 -8 4 -9 -27 -6 -46 5 -57 -9 -27 -34 14 -12 14 -14 -6
-21 -12 -4 -18 -13 -14 -19 7 -13 -68 -8 -100 6 -17 8 -17 6 -2 -23 9 -18 27
-34 41 -38 28 -7 24 -30 -8 -38 -12 -3 -35 -17 -52 -31 l-30 -26 35 6 35 6
-32 -29 c-39 -34 -42 -46 -10 -38 20 5 23 2 22 -16 -1 -12 -7 -24 -13 -26 -18
-6 -14 -22 4 -22 13 0 11 -6 -10 -25 -14 -13 -26 -32 -26 -42 0 -13 3 -14 12
-5 20 20 28 14 18 -14 -15 -37 -12 -47 10 -41 15 4 20 0 20 -17 0 -31 43 -183
68 -240 12 -27 22 -52 22 -56 0 -4 -28 -15 -62 -26 l-63 -19 332 -3 c183 -1
483 -1 665 0 301 3 328 4 286 17 -26 7 -46 17 -43 21 2 4 28 10 57 14 120 16
307 113 400 208 58 59 92 110 81 122 -3 3 -35 -10 -70 -30 -167 -93 -294 -144
-446 -179 -99 -22 -103 -17 -12 14 148 51 253 117 355 221 89 90 169 230 131
230 -5 0 -46 -31 -92 -70 -111 -94 -233 -174 -348 -228 -129 -61 -351 -136
-351 -119 0 3 30 15 68 27 37 12 126 51 198 86 112 54 143 75 217 144 97 92
170 193 204 287 13 35 23 68 23 73 0 28 -35 2 -94 -68 -134 -161 -307 -290
-544 -405 -68 -33 -125 -57 -128 -54 -3 3 36 26 88 52 240 120 388 261 470
450 32 72 48 170 27 163 -7 -2 -44 -47 -81 -99 -149 -207 -373 -391 -636 -524
-97 -48 -64 -19 69 61 221 133 311 214 398 359 47 80 70 145 78 228 7 66 -5
74 -35 25z"/>
<path d="M975 1048 c-50 -18 -84 -47 -112 -96 -26 -43 -28 -55 -28 -154 0
-102 1 -108 30 -150 58 -83 186 -116 275 -69 50 26 50 26 50 1 0 -11 5 -20 10
-20 12 0 11 -5 14 99 2 66 6 85 19 93 35 19 14 28 -66 28 -93 0 -115 -9 -65
-26 32 -11 33 -12 36 -77 3 -65 3 -66 -29 -83 -56 -28 -138 -5 -173 49 -25 37
-38 155 -27 226 19 119 73 177 154 167 47 -5 105 -48 113 -84 12 -54 16 -62
30 -62 11 0 14 17 14 80 0 61 -3 80 -14 80 -7 0 -16 -9 -19 -21 l-6 -21 -30
23 c-36 26 -128 35 -176 17z"/>
<path d="M1804 1046 c-52 -23 -77 -63 -71 -119 5 -57 25 -81 122 -147 89 -60
100 -73 100 -122 0 -51 -30 -78 -87 -78 -49 0 -82 30 -98 91 -7 24 -14 50 -16
57 -2 7 -8 10 -14 7 -13 -8 -13 -175 0 -175 5 0 13 7 18 16 8 15 12 15 40 0
44 -22 129 -21 169 4 62 37 80 115 43 175 -11 18 -53 55 -93 81 -108 72 -117
82 -117 124 0 104 141 97 164 -8 16 -69 36 -53 36 28 0 68 -5 81 -26 60 -7 -7
-22 -6 -47 5 -44 18 -82 19 -123 1z"/>
<path d="M2239 1046 c-51 -18 -79 -40 -110 -87 -73 -107 -56 -277 34 -356 106
-93 266 -58 332 73 23 46 28 67 28 132 0 123 -54 210 -147 237 -60 18 -89 18
-137 1z m121 -31 c18 -9 38 -35 55 -69 23 -46 27 -68 27 -139 0 -137 -51 -227
-128 -227 -94 0 -144 79 -145 228 0 171 84 263 191 207z"/>
<path d="M18 1045 c-11 -12 1 -25 22 -25 10 0 21 -7 24 -16 9 -22 7 -387 -2
-400 -4 -7 -15 -13 -25 -15 -10 -2 -18 -8 -18 -14 1 -6 42 -11 96 -13 80 -2
95 0 95 13 0 9 -9 15 -24 15 -34 0 -40 15 -41 92 0 67 0 68 27 68 46 0 122 20
144 38 58 48 76 138 37 189 -43 58 -61 65 -199 70 -71 3 -132 2 -136 -2z m247
-50 c15 -15 26 -37 27 -57 5 -117 -24 -158 -112 -158 l-40 0 0 104 c0 57 3
111 6 120 10 27 90 21 119 -9z"/>
<path d="M414 1041 c-10 -10 -2 -20 19 -23 22 -3 22 -4 25 -211 l2 -207 -25
-10 c-60 -23 -22 -30 155 -30 l180 0 0 70 c0 53 -3 70 -14 70 -8 0 -17 -15
-20 -36 -12 -60 -35 -74 -121 -74 l-75 0 0 100 c0 99 0 100 24 100 42 0 55
-11 66 -51 18 -67 30 -44 30 61 0 79 -3 100 -14 100 -8 0 -17 -15 -20 -35 -8
-40 -10 -42 -55 -47 l-34 -3 2 95 c2 59 7 98 14 103 16 11 136 2 149 -11 6 -6
14 -28 17 -48 10 -64 29 -52 33 20 2 40 -1 66 -7 66 -5 0 -81 1 -168 3 -87 1
-161 0 -163 -2z"/>
<path d="M1445 973 c-91 -243 -145 -366 -164 -380 -33 -22 -16 -33 55 -33 50
0 64 3 64 15 0 8 -8 15 -19 15 -36 0 -42 23 -23 86 l18 59 80 3 80 3 22 -63
c27 -77 27 -86 2 -90 -12 -2 -22 -7 -23 -13 -1 -6 32 -11 81 -13 86 -3 100 5
62 36 -10 10 -38 67 -61 127 -23 61 -55 144 -71 185 -16 41 -35 90 -41 108 -5
17 -15 32 -21 32 -6 0 -25 -35 -41 -77z m43 -106 c40 -106 43 -97 -32 -97
l-66 0 26 68 c14 37 28 75 31 85 7 24 14 16 41 -56z"/>
<path d="M23 463 c-16 -6 -17 -88 -2 -132 20 -56 98 -56 118 0 14 41 14 126 0
134 -17 11 -22 -2 -24 -62 -2 -32 -3 -64 -4 -70 0 -7 -14 -13 -30 -13 -24 0
-31 5 -36 29 -3 15 -5 47 -4 69 3 45 0 52 -18 45z"/>
<path d="M340 456 c0 -9 7 -16 16 -16 17 0 14 22 -4 28 -7 2 -12 -3 -12 -12z"/>
<path d="M900 455 c0 -8 7 -15 15 -15 8 0 15 7 15 15 0 8 -7 15 -15 15 -8 0
-15 -7 -15 -15z"/>
<path d="M1090 461 c0 -6 5 -13 10 -16 15 -9 12 -25 -5 -25 -8 0 -15 -6 -15
-14 0 -10 9 -14 26 -13 15 1 29 -4 32 -12 2 -8 0 -11 -6 -7 -18 11 -62 -12
-62 -33 0 -41 11 -51 56 -51 l44 0 0 54 c0 42 -4 58 -19 68 -10 7 -21 23 -25
36 -7 21 -36 32 -36 13z m48 -128 c-2 -10 -10 -18 -18 -18 -8 0 -16 8 -18 18
-2 12 3 17 18 17 15 0 20 -5 18 -17z"/>
<path d="M1560 380 c0 -73 3 -90 15 -90 12 0 15 17 15 90 0 73 -3 90 -15 90
-12 0 -15 -17 -15 -90z"/>
<path d="M2220 455 c0 -8 7 -15 15 -15 8 0 15 7 15 15 0 8 -7 15 -15 15 -8 0
-15 -7 -15 -15z"/>
<path d="M978 438 c-2 -13 -1 -50 2 -83 5 -56 7 -60 33 -63 19 -2 27 1 27 12
0 9 -6 15 -12 14 -9 -2 -14 12 -16 40 -2 33 0 42 12 42 9 0 16 5 16 10 0 6 -7
10 -15 10 -8 0 -15 9 -15 20 0 27 -27 25 -32 -2z"/>
<path d="M1280 450 c0 -5 11 -10 25 -10 23 0 24 -3 27 -77 4 -100 22 -98 26 2
3 72 4 75 27 75 14 0 25 5 25 10 0 6 -28 10 -65 10 -37 0 -65 -4 -65 -10z"/>
<path d="M2130 441 c0 -11 -6 -21 -12 -24 -10 -3 -10 -7 -1 -18 6 -8 13 -35
15 -59 3 -41 5 -45 32 -48 20 -3 27 0 23 10 -2 7 -10 12 -16 10 -7 -1 -11 15
-11 43 0 33 4 45 15 45 8 0 15 5 15 10 0 6 -6 10 -14 10 -7 0 -16 9 -19 20 -7
26 -27 26 -27 1z"/>
<path d="M218 423 c-27 -4 -28 -6 -28 -69 0 -49 3 -64 14 -64 11 0 16 15 18
52 2 40 7 54 20 56 14 3 17 -6 20 -49 4 -78 28 -78 28 0 0 49 -3 62 -19 71
-11 5 -21 9 -23 9 -2 -1 -15 -4 -30 -6z"/>
<path d="M570 417 c-27 -13 -36 -50 -26 -94 8 -29 49 -47 77 -33 29 16 23 30
-12 28 -19 -2 -34 2 -36 10 -3 8 6 12 30 12 42 0 47 5 38 37 -10 39 -40 55
-71 40z m38 -35 c2 -7 -6 -12 -17 -12 -21 0 -27 11 -14 24 9 9 26 2 31 -12z"/>
<path d="M1434 405 c-31 -31 -31 -69 1 -100 29 -30 36 -31 66 -4 l24 20 -32
-5 c-21 -3 -35 0 -43 9 -11 13 -6 15 29 15 36 0 41 3 41 23 0 54 -50 78 -86
42z m54 -23 c2 -7 -7 -12 -23 -12 -24 0 -26 2 -15 15 14 17 31 16 38 -3z"/>
<path d="M1660 417 c-69 -35 -28 -154 44 -127 34 12 31 31 -5 28 -18 -2 -34 2
-36 10 -3 8 7 12 31 12 41 0 54 17 37 49 -17 31 -43 42 -71 28z m40 -32 c11
-13 8 -15 -20 -15 -28 0 -31 2 -20 15 7 8 16 15 20 15 4 0 13 -7 20 -15z"/>
<path d="M1798 422 c-27 -3 -28 -5 -28 -68 0 -49 3 -64 14 -64 11 0 16 15 18
52 2 40 7 54 20 56 14 3 17 -6 20 -49 4 -67 28 -81 28 -16 0 28 6 49 15 57 21
17 26 9 30 -45 3 -50 8 -61 25 -50 8 5 11 25 7 58 -5 57 -26 81 -61 68 -11 -5
-30 -6 -41 -2 -11 4 -32 5 -47 3z"/>
<path d="M2008 423 c-29 -7 -22 -32 8 -30 15 1 29 -4 32 -12 2 -8 0 -11 -6 -7
-6 3 -22 2 -37 -4 -22 -8 -26 -15 -23 -42 3 -32 5 -33 51 -36 l47 -3 0 55 c0
45 -4 58 -22 70 -12 9 -25 15 -28 15 -3 -1 -13 -3 -22 -6z m42 -94 c-13 -23
-33 -21 -38 4 -3 12 4 17 23 17 23 0 25 -2 15 -21z"/>
<path d="M2322 418 c-42 -21 -43 -89 -1 -121 22 -15 30 -17 48 -8 28 15 27 35
-1 28 -28 -8 -48 9 -48 38 0 29 20 46 48 38 27 -7 29 12 3 27 -23 12 -20 12
-49 -2z"/>
<path d="M2448 423 c-10 -2 -18 -11 -18 -19 0 -11 6 -13 20 -9 11 3 25 3 32
-1 8 -5 -1 -12 -23 -19 -37 -13 -50 -45 -29 -70 17 -21 90 -17 91 4 3 37 -2
96 -9 102 -11 11 -45 17 -64 12z m52 -82 c0 -14 -28 -33 -40 -26 -20 12 -10
35 15 35 14 0 25 -4 25 -9z"/>
<path d="M340 354 c0 -48 3 -65 13 -62 7 3 13 28 15 66 2 51 0 62 -13 62 -12
0 -15 -13 -15 -66z"/>
<path d="M402 408 c3 -7 13 -37 24 -66 12 -35 23 -52 33 -50 13 3 48 84 50
116 2 27 -21 10 -37 -29 l-18 -42 -12 42 c-8 25 -19 41 -28 41 -9 0 -14 -6
-12 -12z"/>
<path d="M680 355 c0 -51 3 -65 15 -65 11 0 15 12 15 45 0 34 5 47 20 55 31
16 24 30 -15 30 l-35 0 0 -65z"/>
<path d="M787 414 c-16 -16 -5 -44 24 -65 34 -24 27 -49 -9 -30 -23 12 -36 3
-21 -16 15 -17 63 -17 79 2 16 20 5 50 -25 63 -32 15 -32 31 -1 29 14 -1 26 3
28 8 3 12 -64 20 -75 9z"/>
<path d="M900 350 c0 -56 3 -70 15 -70 12 0 15 14 15 70 0 56 -3 70 -15 70
-12 0 -15 -14 -15 -70z"/>
<path d="M2222 358 c2 -38 8 -63 16 -66 9 -3 12 14 12 62 0 53 -3 66 -15 66
-13 0 -15 -11 -13 -62z"/>
</g>
</svg>
